<svg id="Слой_1" data-name="Слой 1" xmlns="http://www.w3.org/2000/svg" viewBox="0 0 728.3 107.84"><defs><style>.cls-1{fill:#c66c2f;}.cls-2{fill:#231300;}.cls-3{fill:#00a1df;}</style></defs><title>Legenda-Logotype-2</title><path class="cls-1" d="M177.61,340.41q-1,.14-4.24.34T165,341q-10.07-.21-15.42-4.93A25.28,25.28,0,0,1,142,323.92a128.57,128.57,0,0,1-3.69-20.56q-1.52-13.18-2.62-18.49-1.86-10.07-3.17-15.73A61,61,0,0,0,129.31,259a17.49,17.49,0,0,0-5-7,12.06,12.06,0,0,0-7.76-2.45,11,11,0,0,0-7.45,2.72,18.4,18.4,0,0,0-4.73,7.14,73.88,73.88,0,0,0-3.28,12.07q-1.52,7.59-2.62,13.39a153.58,153.58,0,0,0-1.79,19.49,152,152,0,0,1-1.86,19.77A21.08,21.08,0,0,1,88.43,336q-5.07,4.76-15.7,5-3.59,0-6.9-.21T61,340.41a3.88,3.88,0,0,1-3.11-1.28,4.35,4.35,0,0,1-1.1-2.93,4.44,4.44,0,0,1,1.1-3A3.88,3.88,0,0,1,61,331.92H72.73A9.7,9.7,0,0,0,81,328.12a23,23,0,0,0,4-9.42q1.14-5.62,2.31-16.66t2.28-17.46a144.51,144.51,0,0,1,5.28-21.77,44.24,44.24,0,0,1,8.76-15.73,17.48,17.48,0,0,1,13.49-6.17,16.74,16.74,0,0,1,11,3.73,27.56,27.56,0,0,1,7.38,9.94,78.62,78.62,0,0,1,4.28,11.18q1.41,5,5.14,19.25,1.79,6.42,4,17.56T152.53,319a25.61,25.61,0,0,0,4.52,9.11,9.65,9.65,0,0,0,7.94,3.83h12.63a3.89,3.89,0,0,1,3.11,1.28,4.44,4.44,0,0,1,1.1,3,4.35,4.35,0,0,1-1.1,2.93A3.88,3.88,0,0,1,177.61,340.41Z" transform="translate(-56.79 -233.12)"/><path class="cls-2" d="M350.51,250.78H308.63v81.41a3.21,3.21,0,0,1-1,2.52,3.49,3.49,0,0,1-2.41.86,3.56,3.56,0,0,1-2.35-.86,3.09,3.09,0,0,1-1-2.52V247.4q0-3.38,3.38-3.38h45.26a3.19,3.19,0,0,1,2.48,1,3.4,3.4,0,0,1,.9,2.36,3.49,3.49,0,0,1-.9,2.43A3.18,3.18,0,0,1,350.51,250.78Z" transform="translate(-56.79 -233.12)"/><path class="cls-3" d="M260.77,260.81H200.95a6.4,6.4,0,0,1-5-2,7.31,7.31,0,0,1-.05-9.55,6.46,6.46,0,0,1,5-1.91h59.82a6.46,6.46,0,0,1,5,1.91,7.32,7.32,0,0,1-.05,9.55A6.4,6.4,0,0,1,260.77,260.81Zm0,36.9H200.95a6.47,6.47,0,0,1-5-1.93,6.74,6.74,0,0,1-1.8-4.79,6.87,6.87,0,0,1,1.75-4.79,6.44,6.44,0,0,1,5-1.92h59.82a6.43,6.43,0,0,1,5,1.92,6.87,6.87,0,0,1,1.75,4.79,6.74,6.74,0,0,1-1.8,4.79A6.47,6.47,0,0,1,260.77,297.7Zm0,36.79H200.95a6.49,6.49,0,0,1-5-1.91,6.65,6.65,0,0,1-1.8-4.75A6.85,6.85,0,0,1,196,323a6.4,6.4,0,0,1,5-2h59.82a6.4,6.4,0,0,1,5,2,6.85,6.85,0,0,1,1.8,4.8,6.65,6.65,0,0,1-1.8,4.75A6.5,6.5,0,0,1,260.77,334.49Z" transform="translate(-56.79 -233.12)"/><path class="cls-2" d="M491,333.23a3.3,3.3,0,0,1-1,2.56,3.53,3.53,0,0,1-2.47.93,3.46,3.46,0,0,1-2.42-.93,3.3,3.3,0,0,1-1-2.56V247.69a3.3,3.3,0,0,1,1-2.56,3.46,3.46,0,0,1,2.42-.93,3.53,3.53,0,0,1,2.47.93,3.3,3.3,0,0,1,1,2.56Z" transform="translate(-56.79 -233.12)"/><path class="cls-2" d="M557.37,331.13a3.18,3.18,0,0,1-1,2.47,3.33,3.33,0,0,1-2.33.89,3.4,3.4,0,0,1-2.39-.89,3.19,3.19,0,0,1-1-2.47V248.47a3.19,3.19,0,0,1,1-2.47,3.4,3.4,0,0,1,2.39-.89,3.33,3.33,0,0,1,2.33.89,3.18,3.18,0,0,1,1,2.47Z" transform="translate(-56.79 -233.12)"/><path class="cls-2" d="M633.63,324l-.15,2.74L631,328.66H592.38q-3.33,0-3.33-2.37a4.27,4.27,0,0,1,.59-2.3L609,290.6q1.19-2.07,2.67-2.07t2.74,2.07Zm26.29-47,.15,3.33-2.89,1.41H619.42q-3.33,0-3.33-2.44a4.29,4.29,0,0,1,.59-2.3l19.26-33.33q1.11-2.15,2.74-2.15t2.74,2.15Zm25.77,47,.3,3-3,1.63H645.19q-3.33,0-3.33-2.37a4.27,4.27,0,0,1,.59-2.3L661,290.6q1.18-2.07,2.74-2.07t2.74,2.07Z" transform="translate(-56.79 -233.12)"/><path class="cls-1" d="M785.1,331.51a6.16,6.16,0,0,1-1.21,4.11,3.79,3.79,0,0,1-3,1.41,3.84,3.84,0,0,1-3.93-3l-25.32-81.56-25.46,81.56a3.84,3.84,0,0,1-3.93,3,4.75,4.75,0,0,1-3.17-1.17,3.72,3.72,0,0,1-1.38-3l.34-1.38,29.53-94.66q1.24-3.73,4.07-3.73,3,0,4.07,3.73Z" transform="translate(-56.79 -233.12)"/><path class="cls-1" d="M763.92,305a11.92,11.92,0,0,1-.94,4.7,12.47,12.47,0,0,1-6.57,6.57,12.26,12.26,0,0,1-9.41,0,12.45,12.45,0,0,1-6.57-6.61,11.94,11.94,0,0,1-.93-4.66,11.46,11.46,0,0,1,1.2-5.29.88.88,0,0,1,.83-.55,1.06,1.06,0,0,1,.72.27.84.84,0,0,1,.31.66.85.85,0,0,1-.13.46,9.82,9.82,0,0,0-1,4.45,9.94,9.94,0,0,0,1.38,5.14,10.38,10.38,0,0,0,3.76,3.74,10.14,10.14,0,0,0,10.26,0,10.38,10.38,0,0,0,3.76-3.74A9.94,9.94,0,0,0,762,305a9.82,9.82,0,0,0-1-4.45.85.85,0,0,1-.13-.46.84.84,0,0,1,.31-.66,1.06,1.06,0,0,1,.72-.27.88.88,0,0,1,.83.55A11.46,11.46,0,0,1,763.92,305Z" transform="translate(-56.79 -233.12)"/><path class="cls-3" d="M440.81,259.67H381a6.4,6.4,0,0,1-5-2,7.31,7.31,0,0,1-.05-9.55,6.46,6.46,0,0,1,5-1.91h59.82a6.46,6.46,0,0,1,5,1.91,7.32,7.32,0,0,1-.05,9.55A6.4,6.4,0,0,1,440.81,259.67Zm0,36.9H381a6.47,6.47,0,0,1-5-1.93,6.74,6.74,0,0,1-1.8-4.79,6.87,6.87,0,0,1,1.75-4.79,6.44,6.44,0,0,1,5-1.92h59.82a6.43,6.43,0,0,1,5,1.92,6.87,6.87,0,0,1,1.75,4.79,6.74,6.74,0,0,1-1.8,4.79A6.47,6.47,0,0,1,440.81,296.57Zm0,36.79H381a6.49,6.49,0,0,1-5-1.91,6.65,6.65,0,0,1-1.8-4.75,6.85,6.85,0,0,1,1.8-4.8,6.4,6.4,0,0,1,5-2h59.82a6.4,6.4,0,0,1,5,2,6.85,6.85,0,0,1,1.8,4.8,6.65,6.65,0,0,1-1.8,4.75A6.5,6.5,0,0,1,440.81,333.35Z" transform="translate(-56.79 -233.12)"/><path class="cls-2" d="M529.1,293a7.64,7.64,0,0,1-2.48,5.69,8.8,8.8,0,0,1-12.08,0,7.64,7.64,0,0,1-2.48-5.69,7.41,7.41,0,0,1,1.16-4,8.2,8.2,0,0,1,3.12-2.91,9.06,9.06,0,0,1,8.49,0,8.2,8.2,0,0,1,3.12,2.91A7.41,7.41,0,0,1,529.1,293Z" transform="translate(-56.79 -233.12)"/></svg>